<svg width="235" height="60" viewBox="0 0 235 60" fill="none" xmlns="http://www.w3.org/2000/svg">
<g clip-path="url(#clip0_1_506)">
<path d="M60.1247 36.145C59.034 36.145 58.0342 36.6941 57.4889 37.6092C56.9436 38.5242 56.9436 39.7138 57.4889 40.6289C58.0342 41.5439 59.034 42.1387 60.1247 42.093C61.7608 42.0472 63.0333 40.7204 63.0333 39.119C63.0787 37.5177 61.7608 36.1908 60.1247 36.145Z" fill="#230B59"/>
<path d="M56.3527 43.9233C54.9439 43.9233 53.8077 45.0672 53.8077 46.4398C53.8077 47.8582 54.9439 49.002 56.3527 49.002C57.7616 49.002 58.8977 47.8582 58.8977 46.4398C58.8977 45.0672 57.7616 43.9233 56.3527 43.9233Z" fill="#230B59"/>
<path d="M50.8332 54.3968C52.0372 54.3564 52.9808 53.3411 52.9407 52.1288C52.9006 50.9167 51.892 49.9667 50.6881 50.0071C49.484 50.0475 48.5404 51.0628 48.5805 52.275C48.6206 53.4872 49.6292 54.4371 50.8332 54.3968Z" fill="#230B59"/>
<path d="M44.446 54.1265C43.4462 54.1265 42.6736 54.9043 42.6736 55.9108C42.6736 56.9174 43.4462 57.6952 44.446 57.6952C45.4458 57.6952 46.2184 56.9174 46.2184 55.9108C46.2184 54.9043 45.4458 54.1265 44.446 54.1265Z" fill="#230B59"/>
<path d="M38.2653 56.2769C37.4473 56.2769 36.7656 56.9632 36.7656 57.7867C36.7656 58.6102 37.4473 59.2966 38.2653 59.2966C39.0833 59.2966 39.765 58.6102 39.765 57.7867C39.8105 56.9632 39.1288 56.2769 38.2653 56.2769Z" fill="#230B59"/>
<path d="M32.4937 57.146C31.7666 57.146 31.1758 57.7408 31.1758 58.4729C31.1758 59.2049 31.7666 59.7997 32.4937 59.7997C33.2209 59.7997 33.8116 59.2049 33.8116 58.4729C33.7662 57.7408 33.1754 57.146 32.4937 57.146Z" fill="#230B59"/>
<path d="M26.6766 56.2769C25.8586 56.2769 25.1769 56.9632 25.1769 57.7867C25.1769 58.6102 25.8586 59.2966 26.6766 59.2966C27.4946 59.2966 28.1763 58.6102 28.1763 57.7867C28.1763 56.9632 27.4946 56.2769 26.6766 56.2769Z" fill="#230B59"/>
<path d="M20.4961 54.0806C19.8598 54.0806 19.269 54.4009 18.9509 54.9499C18.6328 55.499 18.6328 56.1852 18.9509 56.7343C19.269 57.2833 19.8598 57.6036 20.4961 57.6036C21.4504 57.6036 22.2685 56.8258 22.2685 55.8192C22.223 54.9041 21.4504 54.1263 20.4961 54.0806Z" fill="#230B59"/>
<path d="M14.1791 50.0083C13.4065 50.0083 12.6793 50.42 12.2703 51.1064C11.8613 51.7927 11.8613 52.6162 12.2703 53.3025C12.6793 53.9888 13.3611 54.4006 14.1791 54.4006C15.3606 54.4006 16.3604 53.4398 16.3604 52.2044C16.3604 51.0149 15.4061 50.0083 14.1791 50.0083Z" fill="#230B59"/>
<path d="M8.58929 43.9233C7.18045 43.9233 6.04431 45.0672 6.04431 46.4855C6.04431 47.9039 7.18045 49.0478 8.58929 49.0478C9.99808 49.0478 11.1342 47.9039 11.1342 46.4855C11.0888 45.0672 9.99808 43.9233 8.58929 43.9233Z" fill="#230B59"/>
<path d="M4.81727 36.145C3.72657 36.0993 2.72676 36.6941 2.18141 37.6092C1.63606 38.5242 1.63606 39.7138 2.18141 40.6289C2.72676 41.544 3.72657 42.1388 4.81727 42.093C6.45331 42.0473 7.72583 40.7204 7.72583 39.119C7.72583 37.5177 6.40787 36.1908 4.81727 36.145Z" fill="#230B59"/>
<path d="M3.45388 26.4453C1.54516 26.4453 0 28.0009 0 29.9226C0 31.8442 1.54516 33.3998 3.45388 33.3998C5.3626 33.3998 6.90778 31.8442 6.90778 29.9226C6.86234 28.0009 5.3626 26.4453 3.45388 26.4453Z" fill="#230B59"/>
<path d="M4.81727 17.6606C3.72657 17.6606 2.72676 18.2097 2.18141 19.1248C1.63606 20.0398 1.63606 21.2294 2.18141 22.1445C2.72676 23.0596 3.72657 23.6544 4.81727 23.6086C6.45331 23.5629 7.72583 22.236 7.72583 20.6347C7.72583 19.0333 6.40787 17.7064 4.81727 17.6606Z" fill="#230B59"/>
<path d="M8.58926 10.752C7.68035 10.752 6.81687 11.2095 6.36239 12.033C5.90793 12.8108 5.90793 13.8174 6.36239 14.5952C6.81687 15.373 7.68035 15.8763 8.58926 15.8763C9.9526 15.8305 11.0887 14.7325 11.0887 13.3141C11.0433 11.9415 9.9526 10.7977 8.58926 10.752Z" fill="#230B59"/>
<path d="M14.1791 5.35303C12.9975 5.35303 11.9977 6.31385 11.9977 7.54922C11.9977 8.73879 12.952 9.74535 14.1791 9.74535C15.3607 9.74535 16.3605 8.78454 16.3605 7.54922C16.3605 6.3596 15.4061 5.35303 14.1791 5.35303Z" fill="#230B59"/>
<path d="M20.4961 2.10449C19.5417 2.10449 18.7237 2.8823 18.7237 3.88888C18.7237 4.8497 19.4962 5.67326 20.4961 5.67326C21.4504 5.67326 22.2685 4.89545 22.2685 3.88888C22.223 2.92805 21.4504 2.10449 20.4961 2.10449Z" fill="#230B59"/>
<path d="M26.6766 0.45752C25.8132 0.45752 25.1315 1.14382 25.1315 2.01313C25.1315 2.88245 25.8132 3.56875 26.6766 3.56875C27.4947 3.56875 28.1764 2.88245 28.1764 2.05889C28.1309 1.14382 27.4947 0.45752 26.6766 0.45752Z" fill="#230B59"/>
<path d="M32.4483 0C31.7211 0 31.1303 0.594794 31.1303 1.32685C31.1303 2.05891 31.7211 2.6537 32.4483 2.6537C33.1754 2.6537 33.7662 2.05891 33.7662 1.32685C33.7662 0.594794 33.1754 0 32.4483 0Z" fill="#230B59"/>
<path d="M38.2653 0.45752C37.4473 0.45752 36.7656 1.14382 36.7656 1.96738C36.7656 2.79095 37.4473 3.47724 38.2653 3.47724C39.0833 3.47724 39.765 2.79095 39.765 1.96738C39.8105 1.14382 39.1288 0.45752 38.2653 0.45752Z" fill="#230B59"/>
<path d="M44.446 2.10449C43.8097 2.10449 43.2189 2.42477 42.9008 2.97381C42.5827 3.52285 42.5827 4.20915 42.9008 4.75819C43.2189 5.30723 43.8097 5.62751 44.446 5.62751C45.4003 5.62751 46.2184 4.8497 46.2184 3.84312C46.2184 2.83655 45.4458 2.10449 44.446 2.10449Z" fill="#230B59"/>
<path d="M50.7629 5.39893C49.5813 5.39893 48.5815 6.35974 48.5815 7.59506C48.5815 8.7847 49.5358 9.79127 50.7629 9.79127C51.9445 9.79127 52.9443 8.83045 52.9443 7.59506C52.9443 6.35974 51.9445 5.39893 50.7629 5.39893Z" fill="#230B59"/>
<path d="M56.3527 10.752C54.9439 10.752 53.8077 11.8958 53.8077 13.3141C53.8077 14.7325 54.9439 15.8763 56.3527 15.8763C57.7616 15.8763 58.8977 14.7325 58.8977 13.3141C58.8977 11.8958 57.7616 10.752 56.3527 10.752Z" fill="#230B59"/>
<path d="M60.1247 17.6606C59.034 17.6606 58.0342 18.2097 57.4889 19.1248C56.9436 20.0398 56.9436 21.2294 57.4889 22.1445C58.0342 23.0596 59.034 23.6544 60.1247 23.6086C61.7608 23.5629 63.0333 22.236 63.0333 20.6347C63.0333 18.9875 61.7608 17.6606 60.1247 17.6606Z" fill="#230B59"/>
<path d="M46.491 34.4521C45.9911 34.4521 45.5367 34.681 45.3094 35.0927C45.0822 35.5045 45.0822 36.0535 45.3094 36.4653C45.5367 36.8771 45.9911 37.1516 46.491 37.1059C47.2182 37.0601 47.7635 36.4653 47.7635 35.779C47.809 35.0927 47.2182 34.4979 46.491 34.4521Z" fill="#230B59"/>
<path d="M43.1735 39.4395C42.6736 39.4395 42.2192 39.6682 41.9919 40.08C41.7647 40.4918 41.7647 41.0408 41.9919 41.4526C42.2192 41.8643 42.719 42.1389 43.1735 42.0932C43.9006 42.0474 44.446 41.4526 44.446 40.7663C44.446 40.08 43.9006 39.4852 43.1735 39.4395Z" fill="#230B59"/>
<path d="M38.2199 42.6421C37.72 42.6421 37.2201 42.9167 36.9474 43.3742C36.6748 43.8317 36.6748 44.3807 36.9474 44.8383C37.2201 45.2958 37.6746 45.5704 38.2199 45.5704C39.0379 45.5704 39.6742 44.9298 39.6742 44.1062C39.6742 43.2827 39.0379 42.6421 38.2199 42.6421Z" fill="#230B59"/>
<path d="M32.4028 43.5112C31.3121 43.5112 30.4487 44.3806 30.4487 45.4787C30.4487 46.5768 31.3121 47.4461 32.4028 47.4461C33.4935 47.4461 34.357 46.5768 34.357 45.4787C34.3115 44.3806 33.4481 43.5112 32.4028 43.5112Z" fill="#230B59"/>
<path d="M26.5403 42.3218C25.3133 42.3218 24.3135 43.3284 24.3135 44.5637C24.3135 45.7991 25.3133 46.8056 26.5403 46.8056C27.7674 46.8056 28.7672 45.7991 28.7672 44.5637C28.7672 43.3284 27.7674 42.3218 26.5403 42.3218Z" fill="#230B59"/>
<path d="M21.2686 38.5703C19.9053 38.5703 18.8146 39.6684 18.8146 41.041C18.8146 42.4136 19.9053 43.5117 21.2686 43.5117C22.632 43.5117 23.7227 42.4136 23.7227 41.041C23.7227 39.6684 22.632 38.5703 21.2686 38.5703Z" fill="#230B59"/>
<path d="M17.7693 33.5371C16.6331 33.5371 15.7242 34.4522 15.7242 35.596C15.7242 36.7398 16.6331 37.6549 17.7693 37.6549C18.9054 37.6549 19.8143 36.7398 19.8143 35.596C19.8598 34.4979 18.9054 33.5371 17.7693 33.5371Z" fill="#230B59"/>
<path d="M16.9513 28.0469C16.0878 28.0469 15.3607 28.7789 15.3607 29.6483C15.3607 30.5175 16.0878 31.2496 16.9513 31.2496C17.8147 31.2496 18.5419 30.5175 18.5419 29.6483C18.5419 28.7332 17.8602 28.0469 16.9513 28.0469Z" fill="#230B59"/>
<path d="M18.3601 22.6479C17.6329 22.6479 17.0422 23.2427 17.0422 23.9748C17.0422 24.7068 17.6329 25.3017 18.3601 25.3017C19.0872 25.3017 19.678 24.7068 19.678 23.9748C19.7235 23.2427 19.0872 22.6479 18.3601 22.6479Z" fill="#230B59"/>
<path d="M21.7231 17.7065C21.2231 17.7065 20.7687 17.9353 20.5415 18.347C20.3142 18.7589 20.3142 19.3079 20.5415 19.7197C20.7687 20.1314 21.2686 20.406 21.7231 20.3602C22.4502 20.3602 23.041 19.7654 23.041 19.0334C22.9955 18.3013 22.4048 17.7065 21.7231 17.7065Z" fill="#230B59"/>
<path d="M26.6312 14.2295C25.8131 14.2295 25.1769 14.8701 25.1769 15.6936C25.1769 16.5172 25.8131 17.1577 26.6312 17.1577C27.4492 17.1577 28.0855 16.5172 28.0855 15.6936C28.0855 14.9158 27.4492 14.2295 26.6312 14.2295Z" fill="#230B59"/>
<path d="M34.4376 14.3721C34.4791 13.2863 33.6384 12.3722 32.5598 12.3306C31.4813 12.2889 30.5735 13.1353 30.532 14.2211C30.4907 15.3069 31.3314 16.2209 32.4099 16.2626C33.4884 16.3043 34.3962 15.4579 34.4376 14.3721Z" fill="#230B59"/>
<path d="M38.3107 12.9941C37.0837 12.9941 36.0839 14.0007 36.0839 15.236C36.0839 16.4714 37.0837 17.478 38.3107 17.478C39.5378 17.478 40.5376 16.4714 40.5376 15.236C40.5376 14.0007 39.5378 12.9941 38.3107 12.9941Z" fill="#230B59"/>
<path d="M43.5825 16.2881C42.2191 16.2881 41.1284 17.3862 41.1284 18.7588C41.1284 20.1314 42.2191 21.2294 43.5825 21.2294C44.9458 21.2294 46.0366 20.1314 46.0366 18.7588C46.0366 17.3862 44.9458 16.2881 43.5825 16.2881Z" fill="#230B59"/>
<path d="M47.0818 22.0991C45.9457 22.0991 45.0367 23.0142 45.0367 24.158C45.0367 25.3018 45.9457 26.2169 47.0818 26.2169C48.2179 26.2169 49.1268 25.3018 49.1268 24.158C49.1268 23.0142 48.2179 22.0991 47.0818 22.0991Z" fill="#230B59"/>
<path d="M41.7192 33.6743C42.3969 33.6743 42.9462 33.1212 42.9462 32.439C42.9462 31.7567 42.3969 31.2036 41.7192 31.2036C41.0416 31.2036 40.4922 31.7567 40.4922 32.439C40.4922 33.1212 41.0416 33.6743 41.7192 33.6743Z" fill="#230B59"/>
<path d="M39.3106 35.0469C38.3108 35.0469 37.4927 35.8704 37.4927 36.877C37.4927 37.8836 38.3108 38.7071 39.3106 38.7071C40.3104 38.7071 41.1284 37.8836 41.1284 36.877C41.1738 35.8704 40.3558 35.0469 39.3106 35.0469Z" fill="#230B59"/>
<path d="M34.6297 37.5176C33.5844 37.5176 32.7209 38.3869 32.7209 39.4392C32.7209 40.4915 33.5844 41.3609 34.6297 41.3609C35.6749 41.3609 36.5384 40.4915 36.5384 39.4392C36.5384 38.3869 35.6749 37.5176 34.6297 37.5176Z" fill="#230B59"/>
<path d="M29.0853 37.3804C28.4944 37.3804 27.9037 37.7007 27.631 38.2497C27.3129 38.7988 27.3129 39.4393 27.631 39.9426C27.9491 40.4916 28.4944 40.8119 29.0853 40.8119C30.0396 40.8119 30.7668 40.0341 30.7668 39.119C30.8122 38.1582 30.0396 37.3804 29.0853 37.3804Z" fill="#230B59"/>
<path d="M24.9952 34.5894C24.3135 34.5894 23.7681 35.1384 23.7681 35.8247C23.7681 36.511 24.3135 37.0601 24.9952 37.0601C25.6768 37.0601 26.2222 36.511 26.2222 35.8247C26.2677 35.1842 25.6768 34.5894 24.9952 34.5894Z" fill="#230B59"/>
<path d="M23.3591 30.9751C22.8592 30.9751 22.4502 31.3869 22.4502 31.8902C22.4502 32.3935 22.8592 32.8052 23.3591 32.8052C23.859 32.8052 24.268 32.3935 24.268 31.8902C24.268 31.3869 23.859 30.9751 23.3591 30.9751Z" fill="#230B59"/>
<path d="M23.2683 26.2627C22.5866 26.2627 22.0412 26.8118 22.0412 27.498C22.0412 28.1843 22.5866 28.7334 23.2683 28.7334C23.9499 28.7334 24.4953 28.1843 24.4953 27.498C24.4953 26.8118 23.9499 26.2627 23.2683 26.2627Z" fill="#230B59"/>
<path d="M25.6768 21.1836C24.677 21.1836 23.859 22.0072 23.859 23.0137C23.859 24.0204 24.677 24.8439 25.6768 24.8439C26.6766 24.8439 27.4947 24.0204 27.4947 23.0137C27.4947 22.0072 26.6766 21.1836 25.6768 21.1836Z" fill="#230B59"/>
<path d="M30.3578 18.5303C29.3125 18.5303 28.4491 19.3996 28.4491 20.4519C28.4491 21.5042 29.3125 22.3735 30.3578 22.3735C31.4031 22.3735 32.2665 21.5042 32.2665 20.4519C32.2665 19.3996 31.4031 18.5303 30.3578 18.5303Z" fill="#230B59"/>
<path d="M35.9022 19.125C35.2659 19.125 34.7205 19.4452 34.4024 19.9486C34.0843 20.4976 34.0843 21.1381 34.4024 21.6871C34.7205 22.2362 35.3114 22.5565 35.9022 22.5107C36.8111 22.465 37.5382 21.733 37.5382 20.8179C37.5382 19.9028 36.8111 19.1707 35.9022 19.125Z" fill="#230B59"/>
<path d="M39.9468 22.7852C39.2651 22.7852 38.7198 23.3342 38.7198 24.0205C38.7198 24.7068 39.2651 25.2558 39.9468 25.2558C40.6285 25.2558 41.1738 24.7068 41.1738 24.0205C41.2192 23.3342 40.6739 22.7852 39.9468 22.7852Z" fill="#230B59"/>
<path d="M41.6737 27.1318C41.1738 27.1318 40.7648 27.5436 40.7648 28.0469C40.7648 28.5502 41.1738 28.962 41.6737 28.962C42.1736 28.962 42.5827 28.5502 42.5827 28.0469C42.5827 27.5436 42.1736 27.1318 41.6737 27.1318Z" fill="#230B59"/>
<path d="M47.8998 28.5503C47.0364 28.5503 46.3092 29.2824 46.3092 30.1517C46.3092 31.021 47.0364 31.7531 47.8998 31.7531C48.7633 31.7531 49.4904 31.021 49.4904 30.1517C49.4904 29.2824 48.7633 28.5503 47.8998 28.5503Z" fill="#230B59"/>
<path d="M54.4895 30.5176C53.5351 30.5176 52.808 31.2954 52.808 32.2105C52.808 33.1713 53.5806 33.9033 54.4895 33.9033C55.4438 33.9033 56.171 33.1255 56.171 32.2105C56.171 31.2954 55.4438 30.5176 54.4895 30.5176Z" fill="#230B59"/>
<path d="M52.808 36.5112C51.9445 36.5112 51.2173 37.2433 51.2173 38.1126C51.2173 38.9819 51.9445 39.714 52.808 39.714C53.6714 39.714 54.3986 38.9819 54.3986 38.1126C54.3986 37.2433 53.7169 36.5112 52.808 36.5112Z" fill="#230B59"/>
<path d="M49.9449 41.5439C49.2177 41.5439 48.5815 42.1388 48.5815 42.9165C48.5815 43.6486 49.1723 44.2892 49.9449 44.2892C50.672 44.2892 51.2628 43.6486 51.2628 42.9165C51.2628 42.1845 50.672 41.5897 49.9449 41.5439Z" fill="#230B59"/>
<path d="M46.491 45.2959C46.082 45.2959 45.673 45.5246 45.4457 45.8906C45.2185 46.2567 45.2185 46.7142 45.4457 47.0803C45.673 47.4463 46.0366 47.675 46.491 47.675C47.1272 47.675 47.6726 47.1718 47.6726 46.4855C47.6726 45.8449 47.1272 45.2959 46.491 45.2959Z" fill="#230B59"/>
<path d="M42.8553 48.041C42.31 48.041 41.8555 48.4985 41.8555 49.0476C41.8555 49.5966 42.31 50.0542 42.8553 50.0542C43.4007 50.0542 43.8551 49.5966 43.8551 49.0476C43.8551 48.4985 43.4007 48.041 42.8553 48.041Z" fill="#230B59"/>
<path d="M38.7198 49.5967C38.0835 49.5967 37.5381 50.1 37.5381 50.7863C37.5381 51.4268 38.0381 51.9759 38.7198 51.9759C39.356 51.9759 39.9014 51.4726 39.9014 50.7863C39.8559 50.1 39.356 49.5967 38.7198 49.5967Z" fill="#230B59"/>
<path d="M33.8571 50.3745C33.1299 50.3745 32.4937 50.9693 32.4937 51.7471C32.4937 52.4791 33.0845 53.1197 33.8571 53.1197C34.5842 53.1197 35.2205 52.5249 35.2205 51.7471C35.175 50.9693 34.5842 50.3745 33.8571 50.3745Z" fill="#230B59"/>
<path d="M28.3127 49.8257C27.3583 49.8257 26.5858 50.6035 26.5858 51.5643C26.5858 52.5251 27.3583 53.303 28.3127 53.303C29.2671 53.303 30.0396 52.5251 30.0396 51.5643C30.0396 50.6035 29.2671 49.8257 28.3127 49.8257Z" fill="#230B59"/>
<path d="M22.4502 47.7207C21.314 47.7207 20.4051 48.6358 20.4051 49.7797C20.4051 50.9235 21.314 51.8385 22.4502 51.8385C23.5863 51.8385 24.4952 50.9235 24.4952 49.7797C24.5407 48.6358 23.5863 47.7207 22.4502 47.7207Z" fill="#230B59"/>
<path d="M17.3148 43.7861C16.4513 43.7861 15.6333 44.2436 15.1789 44.9757C14.7244 45.7535 14.7244 46.6686 15.1789 47.4464C15.6333 48.2242 16.4513 48.6817 17.3148 48.636C18.6328 48.5902 19.678 47.5379 19.678 46.211C19.678 44.93 18.6328 43.8319 17.3148 43.7861Z" fill="#230B59"/>
<path d="M12.9974 37.9297C11.5432 37.9297 10.3616 39.1193 10.3616 40.5834C10.3616 42.0475 11.5432 43.237 12.9974 43.237C14.4517 43.237 15.6333 42.0475 15.6333 40.5834C15.6333 39.0735 14.4517 37.9297 12.9974 37.9297Z" fill="#230B59"/>
<path d="M12.6474 34.0304C12.7293 32.8709 11.862 31.8642 10.7103 31.7817C9.55866 31.6994 8.55873 32.5725 8.47685 33.732C8.39497 34.8915 9.26224 35.8982 10.4139 35.9805C11.5656 36.063 12.5656 35.1898 12.6474 34.0304Z" fill="#230B59"/>
<path d="M12.1116 27.6464C12.163 26.7129 11.4529 25.9142 10.5256 25.8625C9.59837 25.8108 8.80506 26.5256 8.75372 27.4592C8.70232 28.3927 9.4124 29.1915 10.3397 29.2432C11.2669 29.2948 12.0603 28.58 12.1116 27.6464Z" fill="#230B59"/>
<path d="M12.134 20.04C11.2705 20.04 10.5435 20.772 10.5435 21.6414C10.5435 22.5107 11.2705 23.2427 12.134 23.2427C12.9975 23.2427 13.7246 22.5107 13.7246 21.6414C13.7246 20.772 12.9975 20.04 12.134 20.04Z" fill="#230B59"/>
<path d="M14.9971 15.5103C14.4972 15.5103 14.0427 15.739 13.8155 16.1965C13.5883 16.6083 13.5883 17.1573 13.8155 17.5691C14.0427 17.9809 14.5426 18.2555 14.9971 18.2555C15.7242 18.2555 16.315 17.6149 16.315 16.8828C16.315 16.105 15.7242 15.5103 14.9971 15.5103Z" fill="#230B59"/>
<path d="M18.451 12.1245C17.8148 12.1245 17.2694 12.6278 17.2694 13.3141C17.2694 13.9546 17.7693 14.5037 18.451 14.5037C19.1327 14.5037 19.6326 14.0004 19.6326 13.3141C19.6326 12.6736 19.0872 12.1245 18.451 12.1245Z" fill="#230B59"/>
<path d="M22.0866 9.74561C21.5413 9.74561 21.0868 10.2032 21.0868 10.7522C21.0868 11.3012 21.5413 11.7588 22.0866 11.7588C22.632 11.7588 23.0864 11.3012 23.0864 10.7522C23.0864 10.1574 22.632 9.74561 22.0866 9.74561Z" fill="#230B59"/>
<path d="M26.2222 7.86963C25.586 7.86963 25.0406 8.37288 25.0406 9.0592C25.0406 9.69977 25.5405 10.2488 26.2222 10.2488C26.8585 10.2488 27.4038 9.74552 27.4038 9.0592C27.4038 8.37288 26.8585 7.86963 26.2222 7.86963Z" fill="#230B59"/>
<path d="M31.0849 6.68018C30.585 6.68018 30.1305 6.90893 29.9033 7.36649C29.6761 7.77824 29.6761 8.32731 29.9033 8.73906C30.1305 9.15088 30.6305 9.42538 31.0849 9.42538C31.812 9.42538 32.4029 8.78481 32.4029 8.05281C32.4029 7.32074 31.812 6.72593 31.0849 6.68018Z" fill="#230B59"/>
<path d="M36.6293 6.45117C35.9931 6.45117 35.4022 6.77145 35.0841 7.3205C34.766 7.8695 34.766 8.55581 35.0841 9.10488C35.4022 9.65388 35.9931 9.9742 36.6293 9.9742C37.5836 9.9742 38.3562 9.15063 38.3562 8.18981C38.3562 7.229 37.5836 6.45117 36.6293 6.45117Z" fill="#230B59"/>
<path d="M42.31 7.77783C41.1738 7.77783 40.2195 8.6929 40.2195 9.88254C40.2195 11.0264 41.1284 11.9872 42.31 11.9872C43.4462 11.9872 44.4005 11.0721 44.4005 9.88254C44.4005 8.73865 43.4462 7.77783 42.31 7.77783Z" fill="#230B59"/>
<path d="M47.6726 11.0723C46.3092 11.0723 45.264 12.1703 45.264 13.4972C45.264 14.824 46.3547 15.9221 47.6726 15.9221C49.036 15.9221 50.0812 14.824 50.0812 13.4972C50.0812 12.1703 48.9905 11.0723 47.6726 11.0723Z" fill="#230B59"/>
<path d="M51.9445 16.5625C50.9901 16.5625 50.1266 17.0658 49.6268 17.8893C49.1268 18.7129 49.1268 19.7195 49.6268 20.543C50.1266 21.3666 50.9901 21.8699 51.9445 21.8699C53.3988 21.8242 54.5349 20.6803 54.5349 19.2162C54.4895 17.7978 53.3533 16.6082 51.9445 16.5625Z" fill="#230B59"/>
<path d="M54.3531 23.8374C53.626 23.8374 52.8988 24.2035 52.5353 24.844C52.1717 25.4845 52.1717 26.3081 52.5353 26.9487C52.8988 27.5892 53.626 28.001 54.3531 27.9552C55.4892 27.9095 56.3527 26.9944 56.3527 25.8964C56.3527 24.7982 55.4892 23.8832 54.3531 23.8374Z" fill="#230B59"/>
<path d="M64.942 29.8772C64.942 31.7988 63.3968 33.3544 61.4881 33.3544C59.5794 33.3544 58.0342 31.7988 58.0342 29.8772C58.0342 27.9555 59.5794 26.3999 61.4881 26.3999C63.3968 26.4457 64.942 28.0013 64.942 29.8772Z" fill="#230B59"/>
<path d="M235 35.2303C235 31.936 233.137 30.1974 230.228 29.0078C227.956 28.0927 225.956 27.3149 224.411 26.6744C222.911 26.0796 221.593 25.0273 221.593 23.8834C221.593 22.3278 223.502 21.4128 226.047 21.4128C229.046 21.4128 231.41 21.8245 233.637 22.0533H233.727C234.091 22.0533 234.318 21.7788 234.318 21.4128V18.8506C234.318 18.5303 234.046 18.2557 233.682 18.21C232.5 17.9355 229.501 17.2949 226.229 17.2949C219.867 17.2949 216.822 20.0401 216.822 23.8834C216.822 26.3084 217.867 28.6876 220.866 29.9229C223.866 31.1582 230.001 32.6223 230.001 35.1845C230.001 37.1977 229.092 38.2957 226.002 38.2957C222.821 38.2957 219.594 37.8382 218.23 37.6552H218.14C217.776 37.6552 217.504 37.9297 217.504 38.2957V40.7664C217.504 41.1324 217.821 41.407 218.14 41.4528C219.776 41.8188 222.866 42.3678 225.911 42.3678C232.864 42.4593 235 38.7076 235 35.2303Z" fill="#230B59"/>
<path d="M167.741 21.5957H160.878V41.4526C160.878 41.8187 160.56 42.1389 160.196 42.1389H156.788C156.424 42.1389 156.106 41.8187 156.106 41.4526V21.5957H149.244C148.88 21.5957 148.562 21.3669 148.562 20.9551V18.2099C148.562 17.8438 148.88 17.5693 149.244 17.5693H167.741C168.104 17.5693 168.422 17.8438 168.422 18.2099V20.9551C168.422 21.3669 168.104 21.5957 167.741 21.5957Z" fill="#230B59"/>
<path d="M145.563 32.6681V18.2558C145.563 17.8898 145.245 17.6152 144.881 17.6152H141.473C141.109 17.6152 140.791 17.8898 140.791 18.2558V32.6224C140.791 36.5572 138.973 38.4331 135.292 38.4331C131.611 38.4331 129.793 36.5572 129.793 32.6224V18.2558C129.793 17.8898 129.475 17.6152 129.111 17.6152H125.703C125.34 17.6152 125.021 17.8898 125.021 18.2558V32.6224C125.021 39.9887 129.793 42.4136 135.292 42.4136C140.791 42.4136 145.563 40.0344 145.563 32.6681Z" fill="#230B59"/>
<path d="M176.329 31.4781H187.328C187.691 31.4781 188.009 31.1579 188.009 30.7918V28.2753C188.009 27.9093 187.691 27.5891 187.328 27.5891H176.329V24.4321C176.329 21.5496 176.421 21.4581 179.056 21.4581H187.737C188.1 21.4581 188.418 21.1379 188.418 20.7718V18.5757C188.418 18.0723 188.236 17.9351 187.737 17.8436C186.646 17.6606 184.419 17.3403 180.329 17.3403C174.648 17.3403 171.604 17.2945 171.604 24.4321V35.3671C171.604 42.5047 174.648 42.4589 180.329 42.4589C184.419 42.4589 186.646 42.1387 187.737 41.9556C188.236 41.9099 188.418 41.7269 188.418 41.2236V39.0274C188.418 38.6614 188.1 38.3411 187.737 38.3411H179.056C176.466 38.3411 176.329 38.2496 176.329 35.3671V31.4781Z" fill="#230B59"/>
<path d="M108.479 31.4781H119.477C119.841 31.4781 120.159 31.1579 120.159 30.7918V28.2753C120.159 27.9093 119.841 27.5891 119.477 27.5891H108.479V24.4321C108.479 21.5496 108.57 21.4581 111.206 21.4581H119.886C120.25 21.4581 120.568 21.1379 120.568 20.7718V18.5757C120.568 18.0723 120.386 17.9351 119.886 17.8436C118.795 17.6606 116.568 17.3403 112.478 17.3403C106.798 17.3403 103.753 17.2945 103.753 24.4321V35.3671C103.753 42.5047 106.798 42.4589 112.478 42.4589C116.568 42.4589 118.795 42.1387 119.886 41.9556C120.386 41.9099 120.568 41.7269 120.568 41.2236V39.0274C120.568 38.6614 120.25 38.3411 119.886 38.3411H111.206C108.615 38.3411 108.479 38.2496 108.479 35.3671V31.4781Z" fill="#230B59"/>
<path d="M213.958 41.4524L208.596 32.2102C211.414 31.1121 213.232 29.099 213.232 25.4387V25.1642C213.232 19.262 208.368 17.3403 203.051 17.3403C200.552 17.3403 196.689 17.5233 194.917 17.7979C194.235 17.8894 193.826 18.1639 193.826 18.8502V41.4981C193.826 41.8642 194.144 42.1844 194.507 42.1844H197.961C198.325 42.1844 198.598 41.8642 198.598 41.4981V32.9422C199.371 32.988 202.143 33.0795 203.051 33.0795H203.824L208.777 41.4524C208.96 41.7727 209.096 42.1387 209.459 42.1387H213.641C213.913 42.1387 214.05 41.9557 214.05 41.7269C214.05 41.6354 214.004 41.5439 213.958 41.4524ZM208.46 25.4387C208.46 28.4584 206.551 29.1447 203.006 29.1447C202.416 29.1447 199.098 29.0532 198.553 29.0532V21.5954C199.143 21.5039 202.279 21.4582 203.006 21.4582C206.46 21.4582 208.46 22.5562 208.46 25.1642V25.4387Z" fill="#230B59"/>
<path d="M100.026 41.4524L94.6183 32.2102C97.4356 31.1121 99.2533 29.099 99.2533 25.4387V25.1642C99.2533 19.262 94.3907 17.3403 89.0738 17.3403C86.5741 17.3403 82.7112 17.5233 80.9389 17.7979C80.2569 17.8894 79.8485 18.1639 79.8485 18.8502V41.4981C79.8485 41.8642 80.1661 42.1844 80.5298 42.1844H83.9837C84.3474 42.1844 84.6203 41.8642 84.6203 41.4981V32.9422C85.3923 32.988 88.1649 33.0795 89.0738 33.0795H89.8465L94.7998 41.4524C94.9813 41.7727 95.1181 42.1387 95.4818 42.1387H99.6623C99.9353 42.1387 100.071 41.9557 100.071 41.7269C100.071 41.6354 100.071 41.5439 100.026 41.4524ZM94.5269 25.4387C94.5269 28.4584 92.6184 29.1447 89.1192 29.1447C88.5286 29.1447 85.2108 29.0532 84.6657 29.0532V21.5954C85.2562 21.5039 88.3918 21.4582 89.1192 21.4582C92.5731 21.4582 94.5269 22.5562 94.5269 25.1642V25.4387Z" fill="#230B59"/>
</g>
<defs>
<clipPath id="clip0_1_506">
<rect width="235" height="60" fill="white"/>
</clipPath>
</defs>
</svg>
