<svg width="60" height="47" viewBox="0 0 60 47" fill="none" xmlns="http://www.w3.org/2000/svg">
<g clip-path="url(#clip0_1_593)">
<path d="M1.09424 26.782C1.09424 30.1643 3.82335 32.9064 7.18975 32.9064H27.1274L10.5215 21.6523C9.56385 21.0231 8.41921 20.6572 7.18975 20.6572C3.82335 20.6572 1.09424 23.3997 1.09424 26.782Z" fill="#230B59"/>
<path d="M7.08417 10.6564C5.25269 13.4919 6.05439 17.283 8.87447 19.1244L26.2449 30.9716L17.7586 11.5126C17.2815 10.4252 16.4986 9.50191 15.5064 8.85644C12.6867 7.01506 8.91565 7.82115 7.08417 10.6564Z" fill="#230B59"/>
<path d="M59.0029 26.782C59.0029 30.168 56.2675 32.9127 52.8931 32.9127V32.913H32.9099L49.5541 21.6474C50.5141 21.0175 51.6611 20.6514 52.8931 20.6514C56.2675 20.6514 59.0029 23.396 59.0029 26.782Z" fill="#230B59"/>
<path d="M53.0029 10.6483C54.8384 13.4863 54.035 17.2815 51.2084 19.1244L33.7992 30.9831L42.3046 11.5058C42.7831 10.4168 43.5677 9.49244 44.562 8.84674C47.3883 7.00352 51.1675 7.81023 53.0029 10.6483Z" fill="#230B59"/>
<path d="M32.1826 7.77349C32.2912 7.71348 32.3887 7.65963 32.4637 7.60123C33.6226 7.11674 33.1394 6.8714 32.2217 6.82565L30.6022 6.82843C30.4778 5.74054 30.6471 4.63906 31.0925 3.63981C32.4659 0.545528 36.0805 -0.845934 39.1656 0.531828C42.2502 1.90928 43.6376 5.53444 42.2638 8.62873L33.6708 28.3875L31.0944 10.2612C30.8801 8.4927 31.6605 8.06175 32.1826 7.77349Z" fill="#230B59"/>
<path d="M20.9068 0.543853C17.8286 1.92006 16.4441 5.54209 17.8147 8.63359L26.3898 28.375L29.4142 7.11353C29.6033 5.93923 29.4464 4.73498 28.9629 3.64935C27.5923 0.557867 23.9854 -0.83235 20.9068 0.543853Z" fill="#230B59"/>
<path d="M0 41.5233C0 43.4652 1.57754 47 7.60118 47C13.1548 47 14.9088 44.4357 14.9088 43.2595H10.6093C10.6093 43.2595 10.4051 44.8133 7.97969 44.8133C5.55277 44.8133 4.89643 42.7747 4.89643 41.5957C4.89643 40.4215 5.55277 38.4931 7.97969 38.4931C10.4051 38.4931 10.6093 39.8458 10.6093 39.8458H14.9088C14.9088 38.6684 13.6219 36.1401 7.60118 36.1401C1.57754 36.1401 0 39.9045 0 41.5233Z" fill="#230B59"/>
<path d="M45.0912 41.5233C45.0912 43.4652 46.6703 47 52.6921 47C58.2452 47 60 44.4357 60 43.2595H55.7034C55.7034 43.2595 55.4985 44.8133 53.0724 44.8133C50.6451 44.8133 49.9882 42.7747 49.9882 41.5957C49.9882 40.4215 50.6451 38.4931 53.0724 38.4931C55.4985 38.4931 55.7034 39.8458 55.7034 39.8458H60C60 38.6684 58.7143 36.1401 52.6921 36.1401C46.6703 36.1401 45.0912 39.9045 45.0912 41.5233Z" fill="#230B59"/>
<path d="M26.6595 42.8952V36.3213H30.5187V46.7339H24.802L19.8858 40.0842V46.7339H16.027V36.3213H21.6558L26.6595 42.8952Z" fill="#230B59"/>
<path fill-rule="evenodd" clip-rule="evenodd" d="M42.1831 41.1981C42.8856 41.1981 44.3544 40.3775 44.3544 38.7877C44.3544 36.5238 40.1653 36.3213 39.5225 36.3213H31.8041V46.7339H39.5225C43.2347 46.7339 44.7261 45.5538 44.7261 43.5829C44.7261 41.6121 42.1831 41.1981 42.1831 41.1981ZM39.0249 44.2464V44.2601H35.8097V42.348H39.0249V42.3543C39.7118 42.3543 40.2666 42.7789 40.2666 43.3017C40.2666 43.8234 39.7118 44.2464 39.0249 44.2464ZM35.8393 38.3465H38.9374V38.3509C39.4625 38.3509 39.8879 38.6984 39.8879 39.1261C39.8879 39.5554 39.4625 39.9001 38.9374 39.9001V39.9048H35.8393V38.3465Z" fill="#230B59"/>
</g>
<defs>
<clipPath id="clip0_1_593">
<rect width="60" height="47" fill="white"/>
</clipPath>
</defs>
</svg>
