<svg width="60" height="30" viewBox="0 0 60 30" fill="none" xmlns="http://www.w3.org/2000/svg">
<g clip-path="url(#clip0_1_485)">
<path d="M26.1659 1.396H25.8715C24.4586 1.396 23.7345 1.64993 23.2323 4.05104L17.8791 29.6873H16.2241L12.8851 12.9169H12.8484L9.43918 29.6873H7.78651L2.53947 3.39329C2.20596 1.72137 1.7225 1.39522 0.230716 1.39522H0.121368V0.290965H8.04347V1.396H7.89506C6.75551 1.396 6.46887 1.72215 6.46887 2.48783C6.46887 2.65867 6.50012 3.00268 6.54153 3.21235L9.88047 21.0156H9.94842L12.1134 9.29897L10.9809 3.39406C10.6998 1.93725 10.3639 1.396 9.17986 1.396H9.00024V0.290965H16.8458V1.396H16.7029C15.3079 1.396 14.9432 1.88522 14.9408 2.88387C14.9408 3.15799 14.9822 3.46318 15.0478 3.79711L18.3899 20.795H18.4625L21.6171 3.75828C21.664 3.50976 21.6929 3.17119 21.6929 2.95609C21.6929 1.89998 21.3024 1.396 19.7466 1.396H19.5255V0.290965H26.1675V1.396H26.1659ZM42.0052 22.4009C42.0052 27.558 38.8585 29.685 35.1812 29.685C32.5132 29.685 31.2933 28.8129 30.01 27.9385L29.318 29.4652H28.5479V19.4485H29.5367V19.7436C29.5367 26.7768 33.0998 28.3788 34.8898 28.3788C37.4955 28.3788 38.8124 26.4716 38.8124 23.7412C38.8124 20.3982 36.6964 17.9451 33.6387 15.655C30.8746 13.5669 28.3245 11.0105 28.3245 6.75652C28.3245 2.3597 31.0441 0.0727539 34.3026 0.0727539C37.0145 0.0727539 38.2741 1.17778 38.9976 1.79592L39.7339 0.367844H40.465V10.4312H39.4762V10.1415C39.4762 4.6839 37.8236 1.39522 34.5627 1.39522C32.5796 1.39522 31.4034 2.8365 31.4034 5.15218C31.4034 7.89263 33.035 9.44728 36.0669 11.7792C39.4207 14.3691 42.0052 17.0994 42.0052 22.4009ZM59.9827 1.39444H59.1815C58.1847 1.39444 57.5653 1.86271 57.5653 3.07102V23.4174C57.5653 27.9843 54.6819 29.685 50.9962 29.685C48.3649 29.685 45.7155 27.5448 45.7155 23.4174C45.7155 21.205 47.1003 20.2499 48.2119 20.2499C49.3623 20.2499 50.1926 21.0575 50.1926 22.4312C50.1926 24.1909 49.1591 24.9332 47.811 25.1251C47.811 26.6339 48.9718 28.378 50.958 28.378C52.8708 28.378 53.5321 27.325 53.5321 24.1831V3.07102C53.5321 1.86503 52.9495 1.39444 51.952 1.39444H51.0361V0.291741H59.9837V1.39444H59.9827Z" fill="#230B59"/>
</g>
<defs>
<clipPath id="clip0_1_485">
<rect width="60" height="30" fill="white"/>
</clipPath>
</defs>
</svg>
