<svg width="473" height="567" viewBox="0 0 473 567" fill="none" xmlns="http://www.w3.org/2000/svg">
<path d="M25.7798 98.679C24.0587 88.9014 32.1353 79.3084 43.8198 77.2516L348.445 23.6305C360.138 21.5723 371.011 27.8425 372.721 37.6303L447.236 464.385C448.942 474.157 440.866 483.737 429.192 485.792L125.153 539.31C113.468 541.367 102.601 535.108 100.88 525.331L25.7798 98.679Z" fill="url(#paint0_linear_1_761)"/>
<g filter="url(#filter0_d_1_761)">
<path fill-rule="evenodd" clip-rule="evenodd" d="M25.223 99.2333C23.502 89.4557 31.5785 79.8627 43.2631 77.8059L347.913 24.1806C359.597 22.1238 370.464 28.3824 372.185 38.16L447.286 464.812C449.007 474.589 440.93 484.183 429.246 486.239L124.596 539.865C112.911 541.921 102.045 535.663 100.324 525.885L25.223 99.2333Z" fill="url(#paint1_linear_1_761)"/>
</g>
<g opacity="0.8">
<mask id="mask0_1_761" style="mask-type:alpha" maskUnits="userSpaceOnUse" x="24" y="23" width="424" height="518">
<g opacity="0.8">
<path opacity="0.8" fill-rule="evenodd" clip-rule="evenodd" d="M25.223 99.2333C23.502 89.4557 31.5785 79.8627 43.2631 77.8059L347.913 24.1806C359.597 22.1238 370.464 28.3824 372.185 38.16L447.286 464.812C449.007 474.589 440.93 484.183 429.246 486.239L124.596 539.865C112.911 541.921 102.045 535.663 100.324 525.885L25.223 99.2333Z" fill="url(#paint2_linear_1_761)"/>
</g>
</mask>
<g mask="url(#mask0_1_761)">
<g opacity="0.8">
<path opacity="0.8" d="M222.453 33.488C190.137 39.1764 155.847 40.099 114.699 34.4588C104.153 33.0077 93.6208 31.5063 83.1019 29.9547C37.7288 23.3672 12.7344 19.7342 -48.3176 22.2071L-48.2551 18.1697C13.3234 15.6643 38.4911 19.3272 84.1859 25.9584C93.6364 27.3557 104.023 28.8492 115.737 30.4706C215.012 44.058 274.16 18.689 363.704 -19.5782C371.567 -22.9268 379.436 -26.2648 387.31 -29.5923L389.239 -26.046L365.546 -15.9774C312.122 6.91459 269.345 25.234 222.453 33.488Z" fill="url(#paint3_linear_1_761)"/>
<path opacity="0.8" d="M224.634 45.8804C192.318 51.5688 158.028 52.4896 116.883 46.8644C105.123 45.2494 94.7567 43.7321 85.2851 42.3577C39.9079 35.7463 14.9129 32.1106 -46.1361 34.6003L-46.0737 30.5621C15.5052 28.0593 40.6734 31.7248 86.3725 38.3808C95.8196 39.7587 106.207 41.2531 117.924 42.8957C217.201 56.4919 276.348 31.1185 365.867 -7.15165L389.503 -17.1318L391.432 -13.5846C383.555 -10.2702 375.696 -6.92022 367.857 -3.53489C314.306 19.3229 271.526 37.6264 224.634 45.8804Z" fill="url(#paint4_linear_1_761)"/>
<path opacity="0.8" d="M226.985 59.1556C194.668 64.8442 160.36 65.676 119.182 59.8741C107.411 58.208 97.0361 56.6448 87.5572 55.2288C42.1459 48.4363 17.1282 44.6714 -43.945 47.0486L-43.8924 42.9545C17.7134 40.5858 42.8985 44.3413 88.6365 51.1995C98.0911 52.6198 108.491 54.1787 120.214 55.8532C219.597 69.8913 278.685 44.2958 368.158 5.73436C375.778 2.3516 383.629 -0.950493 391.741 -4.42072L393.679 -0.819483L370.027 9.34789C316.64 32.4688 273.88 50.901 226.985 59.1556Z" fill="url(#paint5_linear_1_761)"/>
<path opacity="0.8" d="M229.322 72.433C197.005 78.1216 162.7 78.9747 121.52 73.1568C110.965 71.6605 100.423 70.1133 89.8959 68.5151C44.482 61.7076 19.4684 57.9656 -41.6081 60.3243L-41.5552 56.232C20.0467 53.8411 45.2349 57.6144 90.972 64.4672C100.426 65.8858 110.822 67.4252 122.548 69.1174C221.904 83.1304 281.019 57.5556 370.513 18.9776C378.11 15.599 385.961 12.2978 394.076 8.8479L396.011 12.427C388.148 15.7912 380.295 19.1742 372.452 22.576C318.974 45.7294 276.217 64.1785 229.322 72.433Z" fill="url(#paint6_linear_1_761)"/>
<path opacity="0.8" d="M231.504 84.8255C199.187 90.5141 164.881 91.3636 123.703 85.5581C111.932 83.8912 101.557 82.3263 92.0778 80.9102C46.6621 74.093 21.6474 70.3448 -39.4263 72.7194L-39.3739 68.6245C22.229 66.2389 47.4181 70.0175 93.1568 76.8791C102.611 78.2995 113.008 79.8406 124.734 81.5355C224.097 95.5884 283.207 69.9843 372.679 31.4158C380.298 28.0313 388.149 24.7292 396.261 21.2581L398.199 24.8593L374.547 35.0293C321.154 58.1157 278.399 76.5709 231.504 84.8255Z" fill="url(#paint7_linear_1_761)"/>
<path opacity="0.8" d="M233.685 97.2178C201.368 102.906 167.063 103.758 125.882 97.9363C115.326 96.4389 104.785 94.8904 94.2571 93.291C48.8458 86.4986 23.8317 82.754 -37.2451 85.1108L-37.1925 81.0168C24.4098 78.6286 49.5984 82.4036 95.3364 89.2617C105.854 90.8421 116.38 92.3933 126.913 93.9154C226.294 107.934 285.385 82.3581 374.854 43.7771C382.474 40.3935 390.326 37.0923 398.437 33.6212L400.375 37.2224C392.264 40.6926 384.433 44.1133 376.793 47.3784C323.336 70.5116 280.58 88.9633 233.685 97.2178Z" fill="url(#paint8_linear_1_761)"/>
<path opacity="0.8" d="M235.853 109.613C203.537 115.301 169.246 116.222 128.101 110.597C116.341 108.982 105.975 107.464 96.5034 106.09C51.126 99.4777 26.1312 95.8429 -34.9178 98.3326L-34.8554 94.2944C26.7236 91.7916 51.8917 95.4571 97.5909 102.113C107.038 103.491 117.425 104.985 129.142 106.628C228.423 120.245 287.567 94.8508 377.109 56.5765L400.711 46.542L402.64 50.0884C394.525 53.531 386.69 56.9243 379.065 60.139C325.525 83.0552 282.744 101.359 235.853 109.613Z" fill="url(#paint9_linear_1_761)"/>
<path opacity="0.8" d="M238.204 122.888C205.886 128.576 171.594 129.499 130.445 123.859C119.898 122.408 109.365 120.907 98.8451 119.356C53.4699 112.769 28.4754 109.136 -32.5808 111.609L-32.5182 107.572C29.0634 105.066 54.2322 108.729 99.9301 115.359C109.377 116.737 119.768 118.249 131.482 119.871C230.763 133.458 289.914 108.088 379.439 69.8241C387.064 66.4688 394.92 63.1933 403.037 59.7513L404.965 63.2977L381.305 73.4217C327.878 96.3125 285.098 114.633 238.204 122.888Z" fill="url(#paint10_linear_1_761)"/>
<path opacity="0.8" d="M240.385 135.28C208.068 140.969 173.775 141.89 132.628 136.265C120.867 134.65 110.5 133.133 101.028 131.759C55.6488 125.147 30.654 121.512 -30.3993 124.003L-30.3369 119.964C31.223 117.465 56.4144 121.126 102.093 127.786C112.611 129.318 123.136 130.822 133.669 132.296C232.951 145.892 292.102 120.518 381.626 82.2467L405.227 72.1925L407.152 75.7185C399.284 79.0564 391.426 82.4129 383.579 85.7878C330.062 108.721 287.28 127.025 240.385 135.279L240.385 135.28Z" fill="url(#paint11_linear_1_761)"/>
<path opacity="0.8" d="M242.566 147.672C210.249 153.361 175.953 154.265 134.807 148.643C123.046 147.03 112.679 145.513 103.208 144.14C57.8326 137.553 32.8347 133.901 -28.2181 136.394L-28.1555 132.357C33.4227 129.831 58.5914 133.494 104.293 140.145C113.74 141.522 124.131 143.035 135.845 144.656C235.129 158.262 294.277 132.873 383.829 94.6243C391.436 91.3524 399.294 87.9962 407.403 84.5556L409.331 88.102L385.668 98.2056C332.241 121.097 289.461 139.418 242.566 147.672Z" fill="url(#paint12_linear_1_761)"/>
<path opacity="0.8" d="M244.748 160.065C212.43 165.754 178.138 166.678 136.99 161.042C126.443 159.592 115.91 158.092 105.391 156.542C60.0127 149.939 35.0188 146.309 -26.0371 148.785L-25.9742 144.749C35.6071 142.241 60.7752 145.9 106.476 152.547C115.923 153.923 126.31 155.415 138.027 157.056C237.306 170.632 296.458 145.267 385.985 107.009C393.61 103.655 401.466 100.38 409.586 96.9587L411.511 100.484C403.643 103.82 395.785 107.176 387.937 110.55C334.416 133.454 291.643 151.81 244.748 160.065Z" fill="url(#paint13_linear_1_761)"/>
<path opacity="0.8" d="M247.085 173.342C214.768 179.031 180.462 179.881 139.284 174.075C127.513 172.408 117.138 170.843 107.659 169.427C62.2431 162.61 37.2284 158.862 -23.8453 161.236L-23.7929 157.141C37.7878 154.76 62.9991 158.534 108.714 165.4C119.24 166.98 129.774 168.531 140.315 170.052C239.678 184.105 298.788 158.501 388.26 119.933C395.879 116.548 403.73 113.246 411.842 109.775L413.78 113.377L390.128 123.546C336.735 146.633 293.98 165.088 247.085 173.342Z" fill="url(#paint14_linear_1_761)"/>
<path opacity="0.8" d="M249.266 185.735C216.949 191.423 182.657 192.348 141.508 186.712C130.962 185.262 120.429 183.762 109.909 182.212C64.5312 175.609 39.5373 171.979 -21.5186 174.455L-21.4557 170.419C40.1255 167.91 65.2937 171.57 110.995 178.217C120.441 179.593 130.829 181.085 142.546 182.725C241.825 196.302 300.977 170.937 390.527 132.675C398.128 129.325 405.984 126.05 414.101 122.609L416.029 126.154C408.161 129.49 400.304 132.846 392.456 136.22C338.941 159.163 296.161 177.48 249.266 185.735Z" fill="url(#paint15_linear_1_761)"/>
<path opacity="0.8" d="M251.447 198.127C219.13 203.816 184.837 204.737 143.691 199.112C131.929 197.497 121.562 195.979 112.091 194.606C66.7113 187.994 41.7165 184.359 -19.3368 186.85L-19.2744 182.811C42.3078 180.308 67.477 183.973 113.179 190.629C123.689 192.163 134.207 193.667 144.732 195.143C244.014 208.739 303.164 183.365 392.689 145.094L416.289 135.04L418.218 138.586C410.101 142.029 402.266 145.421 394.642 148.637C341.132 171.608 298.342 189.873 251.447 198.127Z" fill="url(#paint16_linear_1_761)"/>
<path opacity="0.8" d="M253.785 211.405C221.467 217.093 187.162 217.945 145.981 212.123C134.211 210.457 123.835 208.894 114.357 207.478C68.9453 200.685 43.931 196.94 -17.1456 199.298L-17.093 195.204C44.4871 192.819 69.698 196.591 115.409 203.433C124.888 204.848 135.262 206.413 147.009 208.082C246.37 222.125 305.481 196.525 394.954 157.964C402.574 154.58 410.425 151.279 418.537 147.809L420.475 151.409L396.826 161.597C343.432 184.678 300.68 203.15 253.785 211.405Z" fill="url(#paint17_linear_1_761)"/>
<path opacity="0.8" d="M255.952 223.8C223.636 229.488 189.333 230.337 148.157 224.531C136.387 222.864 126.013 221.299 116.534 219.883C71.1201 213.065 46.1053 209.317 -14.9641 211.691L-14.9117 207.596C46.688 205.211 71.8761 208.99 117.612 215.852C127.066 217.272 137.461 218.814 149.188 220.509C248.542 234.542 307.652 208.959 397.138 170.367L420.727 160.25L422.662 163.832C414.799 167.197 406.946 170.581 399.104 173.984C345.597 197.091 302.867 215.542 255.952 223.8Z" fill="url(#paint18_linear_1_761)"/>
<path opacity="0.8" d="M258.303 237.075C225.986 242.763 191.677 243.594 150.5 237.793C138.729 236.127 128.354 234.564 118.875 233.148C73.4638 226.355 48.4461 222.59 -12.6271 224.968L-12.5745 220.874C49.0279 218.485 74.2165 222.261 119.954 229.119C129.409 230.538 139.808 232.098 151.531 233.771C250.892 247.814 310.003 222.215 399.476 183.653C407.096 180.271 414.947 176.969 423.059 173.498L424.997 177.099L401.344 187.267C347.951 210.348 305.198 228.82 258.303 237.075Z" fill="url(#paint19_linear_1_761)"/>
<path opacity="0.8" d="M260.484 249.467C228.167 255.156 193.875 256.08 152.726 250.444C142.18 248.994 131.647 247.494 121.127 245.944C75.7495 239.341 50.7557 235.711 -10.3002 238.187L-10.2374 234.151C51.3438 231.643 76.5121 235.303 122.213 241.949C131.66 243.325 142.047 244.817 153.764 246.458C253.043 260.034 312.195 234.669 401.722 196.411C409.364 193.155 417.203 189.782 425.323 186.361L427.248 189.886C419.38 193.223 411.522 196.578 403.674 199.952C350.163 222.915 307.379 241.212 260.484 249.467Z" fill="url(#paint20_linear_1_761)"/>
<path opacity="0.8" d="M262.666 261.859C230.349 267.548 196.056 268.469 154.909 262.844C143.148 261.23 132.781 259.712 123.309 258.338C77.9296 251.726 52.9348 248.091 -8.11843 250.582L-8.05603 246.544C53.5261 244.04 78.6953 247.706 124.398 254.361C134.907 255.895 145.425 257.4 155.95 258.876C255.259 272.486 314.383 247.097 403.91 208.845C411.535 205.489 419.391 202.214 427.507 198.772L429.436 202.318L405.769 212.405C352.343 235.301 309.561 253.605 262.666 261.859Z" fill="url(#paint21_linear_1_761)"/>
<path opacity="0.8" d="M264.847 274.252C232.53 279.94 198.238 280.865 157.089 275.229C146.543 273.779 136.01 272.279 125.49 270.729C80.1122 264.126 55.1184 260.496 -5.93754 262.972L-5.87468 258.936C55.7065 256.427 80.8748 260.087 126.576 266.734C136.022 268.11 146.41 269.602 158.127 271.242C257.406 284.819 316.558 259.454 406.084 221.196C413.709 217.842 421.565 214.567 429.682 211.126L431.61 214.671C423.742 218.007 415.885 221.363 408.037 224.736C354.525 247.7 311.742 265.997 264.847 274.252Z" fill="url(#paint22_linear_1_761)"/>
<path opacity="0.8" d="M267.171 287.532C234.854 293.22 200.551 294.069 159.375 288.264C147.605 286.596 137.231 285.031 127.752 283.615C82.3384 276.798 57.3237 273.049 -3.74577 275.423L-3.69334 271.328C57.9063 268.943 83.0944 272.722 128.83 279.584C138.284 281.005 148.68 282.546 160.406 284.241C259.763 298.295 318.871 272.691 408.333 234.103L431.945 223.982L433.883 227.584C425.773 231.054 417.943 234.475 410.323 237.716C356.816 260.823 314.062 279.278 267.171 287.532Z" fill="url(#paint23_linear_1_761)"/>
<path opacity="0.8" d="M269.366 299.922C237.048 305.61 202.753 306.514 161.607 300.893C149.845 299.28 139.478 297.762 130.007 296.39C84.6318 289.802 59.6375 286.17 -1.41874 288.643L-1.35619 284.606C60.2255 282.1 85.3942 285.763 131.092 292.394C140.539 293.771 150.931 295.284 162.644 296.905C261.951 310.507 321.076 285.122 410.605 246.878C418.23 243.522 426.085 240.247 434.202 236.805L436.131 240.351C428.014 243.793 420.179 247.185 412.533 250.423C359.03 273.288 316.261 291.667 269.366 299.922Z" fill="url(#paint24_linear_1_761)"/>
<path opacity="0.8" d="M271.547 312.314C239.23 318.003 204.937 318.924 163.79 313.299C152.029 311.684 141.662 310.166 132.19 308.793C86.8108 302.181 61.816 298.546 0.762758 301.036L0.825157 296.998C62.4073 294.495 87.5765 298.16 133.279 304.816C143.789 306.349 154.306 307.854 164.831 309.33C264.136 322.922 323.264 297.552 412.788 259.281L436.389 249.226L438.314 252.753C430.197 256.196 422.362 259.588 414.717 262.828C361.224 285.756 318.442 304.06 271.547 312.314Z" fill="url(#paint25_linear_1_761)"/>
<path opacity="0.8" d="M273.728 324.706C241.411 330.395 207.115 331.299 165.969 325.677C155.423 324.227 144.889 322.726 134.37 321.174C88.9945 314.586 64.0002 310.954 2.94394 313.428L3.0065 309.391C64.5881 306.885 89.7603 310.567 135.458 317.198C144.905 318.575 155.297 320.088 167.01 321.709C266.317 335.311 325.442 309.926 414.994 271.678C422.601 268.406 430.459 265.05 438.568 261.609L440.497 265.155L416.83 275.24C363.403 298.131 320.646 316.448 273.728 324.706Z" fill="url(#paint26_linear_1_761)"/>
<path opacity="0.8" d="M276.065 337.984C243.748 343.673 209.444 344.526 168.263 338.708C157.708 337.212 147.166 335.665 136.639 334.066C91.2505 327.254 66.2345 323.512 5.13495 325.875L5.18784 321.783C66.7897 319.392 91.978 323.165 137.715 330.018C148.233 331.597 158.758 333.147 169.291 334.668C268.647 348.681 327.762 323.107 417.256 284.529C424.87 281.248 432.704 277.849 440.82 274.399L442.754 277.978C434.891 281.343 427.038 284.726 419.195 288.127C365.724 311.32 322.96 329.73 276.065 337.984Z" fill="url(#paint27_linear_1_761)"/>
<path opacity="0.8" d="M278.403 351.262C246.085 356.95 211.78 357.8 170.602 351.994C158.831 350.327 148.456 348.762 138.977 347.346C93.561 340.529 68.5462 336.781 7.47257 339.155L7.52499 335.06C69.1056 332.679 94.317 336.454 140.032 343.319C150.558 344.899 161.091 346.45 171.633 347.972C270.996 362.024 330.106 336.42 419.601 297.848C427.203 294.548 435.056 291.164 443.16 287.694L445.098 291.296C436.987 294.766 429.156 298.188 421.537 301.429C368.053 324.552 325.298 343.007 278.403 351.262Z" fill="url(#paint28_linear_1_761)"/>
<path opacity="0.8" d="M280.584 363.654C248.267 369.343 213.962 370.194 172.781 364.372C162.225 362.875 151.683 361.326 141.156 359.727C95.7447 352.935 70.7304 349.189 9.65377 351.547L9.70635 347.453C71.2865 345.069 96.4974 348.841 142.209 355.683C151.687 357.098 162.061 358.662 173.809 360.331C273.189 374.35 332.28 348.775 421.75 310.194C429.387 306.909 437.221 303.508 445.333 300.038L447.271 303.638C439.159 307.108 431.329 310.529 423.688 313.794C370.232 336.927 327.479 355.399 280.584 363.654Z" fill="url(#paint29_linear_1_761)"/>
<path opacity="0.8" d="M282.765 376.046C250.448 381.735 216.155 382.656 175.009 377.031C163.247 375.417 152.88 373.899 143.409 372.525C98.0291 365.913 73.0343 362.278 11.9811 364.769L12.0435 360.731C73.6034 358.231 98.7948 361.893 144.474 368.552C154.991 370.084 165.517 371.588 176.05 373.063C275.358 386.673 334.482 361.284 424.006 323.013L447.607 312.959L449.536 316.505C441.419 319.948 433.584 323.34 425.935 326.56C372.443 349.488 329.66 367.792 282.765 376.046Z" fill="url(#paint30_linear_1_761)"/>
<path opacity="0.8" d="M284.947 388.439C252.629 394.127 218.334 395.031 177.188 389.409C165.426 387.796 155.059 386.279 145.588 384.907C100.213 378.319 75.2151 374.667 14.1623 377.16L14.2248 373.123C75.7843 370.621 100.972 374.26 146.65 380.915C156.121 382.288 166.487 383.805 178.225 385.422C277.532 399.024 336.657 373.639 426.186 335.395C433.811 332.039 441.666 328.764 449.783 325.322L451.712 328.868L428.048 338.972C374.621 361.863 331.842 380.184 284.947 388.439Z" fill="url(#paint31_linear_1_761)"/>
<path opacity="0.8" d="M287.284 401.716C254.967 407.405 220.661 408.254 179.483 402.449C168.932 400.932 158.391 399.383 147.858 397.801C102.442 390.984 77.4274 387.236 16.3538 389.61L16.4062 385.515C78.009 383.13 103.198 386.908 148.937 393.77C159.454 395.352 169.98 396.904 180.514 398.426C279.896 412.455 338.987 386.875 428.478 348.282C436.092 345.002 443.926 341.601 452.041 338.149L453.976 341.732C446.113 345.097 438.26 348.481 430.418 351.884C376.934 375.007 334.202 393.458 287.284 401.716Z" fill="url(#paint32_linear_1_761)"/>
<path opacity="0.8" d="M289.465 414.109C257.148 419.797 222.855 420.718 181.709 415.094C171.162 413.642 160.628 412.14 150.108 410.587C104.758 403.991 79.7575 400.336 18.6809 402.831L18.7433 398.793C80.3254 396.289 105.495 399.955 151.197 406.61C160.644 407.988 171.036 409.502 182.749 411.125C282.058 424.736 341.182 399.347 430.733 361.091C438.34 357.819 446.198 354.462 454.307 351.021L456.235 354.567L432.569 364.654C379.142 387.55 336.383 405.85 289.465 414.109Z" fill="url(#paint33_linear_1_761)"/>
<path opacity="0.8" d="M291.647 426.501C259.329 432.19 225.037 433.114 183.889 427.478C173.342 426.028 162.809 424.528 152.29 422.978C106.937 416.37 81.941 412.741 20.8618 415.221L20.9247 411.185C82.5059 408.677 107.674 412.336 153.375 418.983C162.822 420.359 173.209 421.851 184.926 423.492C284.205 437.068 343.357 411.703 432.907 373.441C440.526 370.189 448.365 366.816 456.481 363.375L458.41 366.92C450.542 370.256 442.684 373.612 434.836 376.986C381.325 399.949 338.541 418.246 291.647 426.501Z" fill="url(#paint34_linear_1_761)"/>
<path opacity="0.8" d="M293.828 438.893C261.511 444.582 227.218 445.503 186.071 439.878C174.31 438.263 163.943 436.745 154.471 435.372C109.092 428.76 84.0969 425.125 23.0436 427.616L23.106 423.577C84.6659 421.078 109.857 424.739 155.536 431.399C166.054 432.931 176.579 434.435 187.112 435.91C286.421 449.52 345.545 424.131 435.072 385.879C442.697 382.523 450.553 379.248 458.669 375.805L460.598 379.352L436.917 389.36C383.491 412.257 340.723 430.639 293.828 438.893Z" fill="url(#paint35_linear_1_761)"/>
<path opacity="0.8" d="M296.009 451.286C263.692 456.974 229.4 457.897 188.25 452.257C177.703 450.806 167.17 449.305 156.651 447.754C111.275 441.166 86.281 437.534 25.2248 440.007L25.2874 435.97C86.8468 433.468 112.038 437.127 157.713 443.762C167.184 445.135 177.55 446.651 189.288 448.269C288.591 461.852 347.72 436.486 437.245 398.222C444.887 394.964 452.726 391.591 460.842 388.15L462.771 391.696C454.654 395.137 446.819 398.529 439.173 401.768C385.683 424.711 342.904 443.031 296.009 451.286Z" fill="url(#paint36_linear_1_761)"/>
<path opacity="0.8" d="M298.333 464.566C266.016 470.254 231.726 471.175 190.581 465.55C178.821 463.935 168.455 462.417 158.983 461.043C113.606 454.431 88.6111 450.796 27.5621 453.286L27.6245 449.247C89.1802 446.749 114.372 450.41 160.048 457.07C170.565 458.602 181.09 460.106 191.622 461.581C290.922 475.173 350.046 449.804 439.565 411.534L463.205 401.573L465.134 405.12C457.018 408.562 449.183 411.955 441.535 415.174C388.005 438.008 345.224 456.312 298.333 464.566Z" fill="url(#paint37_linear_1_761)"/>
<path opacity="0.8" d="M300.683 477.841C268.366 483.53 234.058 484.361 192.88 478.559C182.325 477.062 171.783 475.513 161.255 473.914C115.844 467.122 90.8299 463.376 29.7533 465.734L29.8059 461.64C91.4082 459.252 116.597 463.028 162.331 469.865C171.786 471.285 182.185 472.845 193.908 474.518C293.292 488.557 352.38 462.962 441.853 424.4C449.473 421.017 457.324 417.715 465.436 414.245L467.374 417.846L443.725 428.033C390.342 451.174 347.578 469.586 300.683 477.841Z" fill="url(#paint38_linear_1_761)"/>
<path opacity="0.8" d="M302.865 490.233C270.548 495.922 236.243 496.773 195.065 490.971C183.294 489.306 172.919 487.742 163.44 486.327C118.051 479.51 93.0345 475.765 31.9346 478.126L31.9872 474.032C93.5896 471.644 118.778 475.42 164.516 482.277C175.034 483.857 185.559 485.408 196.093 486.93C295.473 500.949 354.565 475.374 444.058 436.789C451.671 433.508 459.505 430.108 467.62 426.657L469.555 430.238C461.692 433.603 453.839 436.987 445.997 440.389C392.516 463.527 349.783 481.975 302.865 490.233Z" fill="url(#paint39_linear_1_761)"/>
<path opacity="0.8" d="M305.046 502.626C272.729 508.314 238.42 509.145 197.243 503.344C186.687 501.847 176.146 500.298 165.618 498.699C120.232 491.902 95.2124 488.137 34.116 490.519L34.1686 486.425C95.7709 484.036 120.96 487.812 166.697 494.67C176.152 496.089 186.551 497.649 198.274 499.322C297.635 513.366 356.746 487.766 446.242 449.201C453.844 445.902 461.698 442.518 469.802 439.049L471.74 442.65L448.087 452.818C394.694 475.899 351.941 494.371 305.046 502.626Z" fill="url(#paint40_linear_1_761)"/>
<path opacity="0.8" d="M307.383 515.903C275.066 521.592 240.761 522.443 199.58 516.622C189.024 515.124 178.483 513.576 167.955 511.976C122.544 505.184 97.5297 501.439 36.4531 503.796L36.5057 499.702C98.0859 497.318 123.297 501.09 169.011 507.951C179.537 509.53 190.07 511.08 200.611 512.6C299.969 526.623 359.083 501.043 448.576 462.458C456.19 459.178 464.024 455.778 472.136 452.307L474.074 455.908C466.211 459.273 458.358 462.656 450.515 466.059C397.035 489.197 354.278 507.649 307.383 515.903Z" fill="url(#paint41_linear_1_761)"/>
<path opacity="0.8" d="M309.565 528.296C277.247 533.984 242.955 534.905 201.808 529.281C190.047 527.666 179.679 526.148 170.208 524.774C124.829 518.162 99.8337 514.528 38.7805 517.018L38.8429 512.98C100.403 510.48 125.594 514.142 171.273 520.801C181.791 522.334 192.316 523.837 202.849 525.312C302.158 538.923 361.282 513.533 450.809 475.282C458.434 471.925 466.29 468.65 474.406 465.208L476.335 468.754L452.668 478.841C399.242 501.737 356.46 520.041 309.565 528.296Z" fill="url(#paint42_linear_1_761)"/>
<path opacity="0.8" d="M311.746 540.688C279.429 546.377 245.136 547.3 203.987 541.659C193.44 540.209 182.907 538.708 172.387 537.156C127.012 530.568 102.018 526.936 40.9616 529.41L41.0242 525.372C102.584 522.87 127.775 526.529 173.449 533.164C182.921 534.537 193.286 536.054 205.025 537.672C304.332 551.273 363.457 525.888 452.985 487.644C460.627 484.386 468.466 481.013 476.582 477.571L478.511 481.117C470.394 484.559 462.559 487.951 454.914 491.189C401.42 514.113 358.641 532.433 311.746 540.688Z" fill="url(#paint43_linear_1_761)"/>
</g>
</g>
</g>
<path fill-rule="evenodd" clip-rule="evenodd" d="M177.098 169.327C157.972 160.545 155.773 135.528 156.581 111.807C156.614 110.853 156.637 110.213 155.757 110.28C150.153 110.703 132.247 116.467 127.195 118.611C125.879 119.168 125.816 119.525 125.922 120.263C132.55 166.299 168.281 171.012 176.748 169.948C176.956 169.923 177.467 169.889 177.532 169.773C177.598 169.656 177.301 169.426 177.098 169.327Z" fill="white"/>
<path fill-rule="evenodd" clip-rule="evenodd" d="M103.488 142.978C102.766 143.569 102.172 143.742 102.519 144.56C106.287 153.433 122.888 179.601 161.493 172.71C162.416 172.584 163.316 172.28 162.527 172.025C156.538 169.472 136.652 168.382 122.605 134.385C122.461 134.038 122.23 132.661 120.63 133.378C112.684 137.226 104.212 142.387 103.488 142.978Z" fill="white"/>
<path fill-rule="evenodd" clip-rule="evenodd" d="M96.4743 167.974C95.8123 168.86 95.655 168.952 95.9518 169.51C98.6885 174.674 110.969 182.26 136.811 176.949C138.033 176.697 137.982 176.378 137.271 176.089C136.808 175.901 128.204 175.111 119.667 170.579C115.395 168.312 110.791 164.535 107.483 160.758C106.643 159.716 105.973 158.961 105.319 159.454C103.159 161.082 98.1099 165.786 96.4743 167.974Z" fill="white"/>
<path d="M249.042 95.4273L213.926 101.609C208.575 102.55 204.883 106.978 205.679 111.498L213.359 155.132C214.155 159.651 219.137 162.552 224.487 161.611L259.603 155.429C264.954 154.488 268.646 150.06 267.85 145.54L260.17 101.907C259.374 97.3867 254.392 94.4855 249.042 95.4273Z" fill="url(#paint44_linear_1_761)"/>
<path d="M221.55 99.3539L224.851 119.964M238.631 97.2599L241.931 117.87L238.631 97.2599Z" stroke="white" stroke-width="0.8" stroke-miterlimit="10"/>
<path d="M261.79 112.348L258.069 116.148L255.616 116.579L250.92 115.491L218.082 121.271L214.617 124.304L211.585 124.838L207.981 122.64" stroke="#A2A2A2" stroke-width="0.8" stroke-miterlimit="10"/>
<path d="M261.945 113.233L258.225 117.033L255.772 117.465L251.076 116.377L218.238 122.157L214.773 125.19L211.741 125.723L208.137 123.525" stroke="white" stroke-width="0.8" stroke-miterlimit="10"/>
<path d="M246.117 138.834L249.358 157.246" stroke="#A1A1A1" stroke-width="0.8" stroke-miterlimit="10"/>
<path d="M265.983 136.253L261.166 133.447L258.789 133.866L254.496 136.79M245.425 138.956L248.666 157.367L245.425 138.956ZM229.029 141.842L232.27 160.254L229.029 141.842ZM212.436 145.471L214.596 142.557L218.299 141.906L222.502 142.565L245.636 138.494L212.436 145.471Z" stroke="white" stroke-width="0.8" stroke-miterlimit="10"/>
<path d="M222.338 100.147L225.797 119.798M238.797 97.2498L242.256 116.901L238.797 97.2498Z" stroke="#A2A2A2" stroke-width="0.8" stroke-miterlimit="10"/>
<path d="M229.502 140.846L232.899 160.143M212.358 145.028L214.519 142.115L218.221 141.463L222.425 142.123L245.558 138.051L246.243 139.268L212.358 145.028ZM265.871 135.613L261.054 132.809L258.677 133.227L254.383 136.151L265.871 135.613Z" stroke="#A1A1A1" stroke-width="0.8" stroke-miterlimit="10"/>
<path d="M361.139 431.104L355.809 432.042L353.402 418.368L358.645 417.445C364.388 416.435 367.838 418.706 368.545 422.724C369.252 426.741 366.686 430.128 361.139 431.104ZM359.112 419.592L356.937 419.975L358.583 429.326L360.585 428.973C361.375 428.936 362.156 428.745 362.866 428.415C363.574 428.085 364.191 427.625 364.669 427.071C365.144 426.519 365.466 425.887 365.607 425.228C365.749 424.571 365.706 423.904 365.481 423.282C365.46 422.64 365.266 422.02 364.914 421.468C364.56 420.913 364.057 420.441 363.443 420.087C362.829 419.733 362.12 419.506 361.368 419.423C360.614 419.337 359.836 419.396 359.091 419.595L359.112 419.592ZM372.734 429.063L370.327 415.389L379.921 413.7L380.311 415.916L373.785 417.065L374.346 420.254L379.328 419.377L380.162 421.57L374.811 422.512L375.477 426.296L382.177 425.117L382.567 427.332L372.734 429.063ZM389.876 426.046L385.134 426.881L382.727 413.206L387.535 412.36C391.254 411.705 393.261 412.782 393.651 414.999C393.778 415.62 393.663 416.271 393.323 416.857C392.982 417.446 392.434 417.94 391.759 418.266C392.686 418.269 393.561 418.547 394.229 419.052C394.897 419.557 395.313 420.255 395.406 421.023C395.872 423.672 393.748 425.364 389.876 426.046ZM387.821 414.371L386.233 414.651L386.868 418.254L388.325 417.998C390.196 417.669 391.054 416.811 390.857 415.695C390.66 414.578 389.627 414.053 387.712 414.39L387.821 414.371ZM388.789 419.866L387.135 420.157L387.871 424.337L389.568 424.039C391.569 423.686 392.619 422.777 392.382 421.426C392.144 420.074 390.833 419.507 388.745 419.874L388.789 419.866ZM398.795 424.476L396.388 410.802L399.563 410.243L401.97 423.917L398.795 424.476ZM410.601 410.641L412.609 422.044L409.411 422.607L407.404 411.204L402.509 412.065L402.109 409.795L414.944 407.536L415.778 409.729L410.601 410.641ZM348.411 449.764L338.482 482.549L328.541 484.299L316.81 461.605C316.647 461.057 316.319 460.561 315.857 460.165C315.395 459.768 314.813 459.484 314.167 459.34C310.988 458.694 307.702 458.386 304.385 458.424L304.448 457.503L320.457 454.685C321.506 454.49 322.58 454.618 323.483 455.044C324.381 455.467 325.045 456.162 325.351 457L332.377 473.724L338.557 451.499L348.411 449.764ZM390.942 463.192C389.544 455.247 376.197 457.151 375.657 453.568C375.467 452.488 376.528 451.13 379.194 450.345C382.328 449.538 385.609 449.442 388.699 450.065L389.208 443.401C386.27 443.023 383.246 443.09 380.272 443.599C370.983 445.234 365.155 450.476 366.12 456.343C366.884 460.685 371.987 462.275 375.807 463.089C379.629 463.903 381.127 464.642 381.34 465.979C381.696 467.996 378.936 469.392 376.223 469.906C372.876 470.566 369.436 470.5 366.232 469.715L365.695 476.607C369.224 477.082 372.866 477.002 376.441 476.37C386.317 474.631 392.064 469.44 391.008 463.181L390.942 463.192ZM417.209 468.692L425.91 467.16L412.997 438.395L404.948 439.812C404.093 439.965 403.294 440.323 402.65 440.844C402.008 441.361 401.551 442.019 401.335 442.733L392.191 473.095L402.068 471.357L403.237 466.526L415.332 464.397L417.209 468.692ZM404.824 459.876L407.921 447.778L412.759 458.572L404.824 459.876ZM361.855 447.398L359.365 478.873L349.969 480.527L352.435 449.056L361.855 447.398Z" fill="white"/>
<defs>
<filter id="filter0_d_1_761" x="-0.00809479" y="0.389429" width="472.525" height="566.466" filterUnits="userSpaceOnUse" color-interpolation-filters="sRGB">
<feFlood flood-opacity="0" result="BackgroundImageFix"/>
<feColorMatrix in="SourceAlpha" type="matrix" values="0 0 0 0 0 0 0 0 0 0 0 0 0 0 0 0 0 0 127 0" result="hardAlpha"/>
<feOffset dy="1.6"/>
<feGaussianBlur stdDeviation="12.5"/>
<feColorMatrix type="matrix" values="0 0 0 0 0 0 0 0 0 0 0 0 0 0 0 0 0 0 0.1 0"/>
<feBlend mode="normal" in2="BackgroundImageFix" result="effect1_dropShadow_1_761"/>
<feBlend mode="normal" in="SourceGraphic" in2="effect1_dropShadow_1_761" result="shape"/>
</filter>
<linearGradient id="paint0_linear_1_761" x1="363.815" y1="20.9251" x2="175.37" y2="190.383" gradientUnits="userSpaceOnUse">
<stop stop-color="white"/>
<stop offset="1" stop-color="#6A64D1"/>
</linearGradient>
<linearGradient id="paint1_linear_1_761" x1="154.228" y1="184.668" x2="467.691" y2="484.491" gradientUnits="userSpaceOnUse">
<stop stop-color="#4840BB"/>
<stop offset="1" stop-color="#75CBCF"/>
</linearGradient>
<linearGradient id="paint2_linear_1_761" x1="154.228" y1="184.668" x2="467.691" y2="484.491" gradientUnits="userSpaceOnUse">
<stop stop-color="#4840BB"/>
<stop offset="1" stop-color="#75CBCF"/>
</linearGradient>
<linearGradient id="paint3_linear_1_761" x1="381.504" y1="438.062" x2="-16.1555" y2="264.656" gradientUnits="userSpaceOnUse">
<stop stop-color="#6EB4CC"/>
<stop offset="1" stop-color="#4941BC"/>
</linearGradient>
<linearGradient id="paint4_linear_1_761" x1="381.504" y1="438.062" x2="-16.1555" y2="264.656" gradientUnits="userSpaceOnUse">
<stop stop-color="#6EB4CC"/>
<stop offset="1" stop-color="#4941BC"/>
</linearGradient>
<linearGradient id="paint5_linear_1_761" x1="381.504" y1="438.062" x2="-16.1555" y2="264.656" gradientUnits="userSpaceOnUse">
<stop stop-color="#6EB4CC"/>
<stop offset="1" stop-color="#4941BC"/>
</linearGradient>
<linearGradient id="paint6_linear_1_761" x1="381.504" y1="438.062" x2="-16.1555" y2="264.656" gradientUnits="userSpaceOnUse">
<stop stop-color="#6EB4CC"/>
<stop offset="1" stop-color="#4941BC"/>
</linearGradient>
<linearGradient id="paint7_linear_1_761" x1="381.504" y1="438.062" x2="-16.1555" y2="264.656" gradientUnits="userSpaceOnUse">
<stop stop-color="#6EB4CC"/>
<stop offset="1" stop-color="#4941BC"/>
</linearGradient>
<linearGradient id="paint8_linear_1_761" x1="381.504" y1="438.062" x2="-16.1555" y2="264.656" gradientUnits="userSpaceOnUse">
<stop stop-color="#6EB4CC"/>
<stop offset="1" stop-color="#4941BC"/>
</linearGradient>
<linearGradient id="paint9_linear_1_761" x1="381.504" y1="438.062" x2="-16.1555" y2="264.656" gradientUnits="userSpaceOnUse">
<stop stop-color="#6EB4CC"/>
<stop offset="1" stop-color="#4941BC"/>
</linearGradient>
<linearGradient id="paint10_linear_1_761" x1="381.504" y1="438.062" x2="-16.1555" y2="264.656" gradientUnits="userSpaceOnUse">
<stop stop-color="#6EB4CC"/>
<stop offset="1" stop-color="#4941BC"/>
</linearGradient>
<linearGradient id="paint11_linear_1_761" x1="381.504" y1="438.062" x2="-16.1555" y2="264.656" gradientUnits="userSpaceOnUse">
<stop stop-color="#6EB4CC"/>
<stop offset="1" stop-color="#4941BC"/>
</linearGradient>
<linearGradient id="paint12_linear_1_761" x1="381.504" y1="438.062" x2="-16.1555" y2="264.656" gradientUnits="userSpaceOnUse">
<stop stop-color="#6EB4CC"/>
<stop offset="1" stop-color="#4941BC"/>
</linearGradient>
<linearGradient id="paint13_linear_1_761" x1="381.504" y1="438.062" x2="-16.1555" y2="264.656" gradientUnits="userSpaceOnUse">
<stop stop-color="#6EB4CC"/>
<stop offset="1" stop-color="#4941BC"/>
</linearGradient>
<linearGradient id="paint14_linear_1_761" x1="381.504" y1="438.062" x2="-16.1555" y2="264.656" gradientUnits="userSpaceOnUse">
<stop stop-color="#6EB4CC"/>
<stop offset="1" stop-color="#4941BC"/>
</linearGradient>
<linearGradient id="paint15_linear_1_761" x1="381.504" y1="438.062" x2="-16.1555" y2="264.656" gradientUnits="userSpaceOnUse">
<stop stop-color="#6EB4CC"/>
<stop offset="1" stop-color="#4941BC"/>
</linearGradient>
<linearGradient id="paint16_linear_1_761" x1="381.504" y1="438.062" x2="-16.1555" y2="264.656" gradientUnits="userSpaceOnUse">
<stop stop-color="#6EB4CC"/>
<stop offset="1" stop-color="#4941BC"/>
</linearGradient>
<linearGradient id="paint17_linear_1_761" x1="381.504" y1="438.062" x2="-16.1555" y2="264.656" gradientUnits="userSpaceOnUse">
<stop stop-color="#6EB4CC"/>
<stop offset="1" stop-color="#4941BC"/>
</linearGradient>
<linearGradient id="paint18_linear_1_761" x1="381.504" y1="438.062" x2="-16.1555" y2="264.656" gradientUnits="userSpaceOnUse">
<stop stop-color="#6EB4CC"/>
<stop offset="1" stop-color="#4941BC"/>
</linearGradient>
<linearGradient id="paint19_linear_1_761" x1="381.504" y1="438.062" x2="-16.1555" y2="264.656" gradientUnits="userSpaceOnUse">
<stop stop-color="#6EB4CC"/>
<stop offset="1" stop-color="#4941BC"/>
</linearGradient>
<linearGradient id="paint20_linear_1_761" x1="381.504" y1="438.062" x2="-16.1555" y2="264.656" gradientUnits="userSpaceOnUse">
<stop stop-color="#6EB4CC"/>
<stop offset="1" stop-color="#4941BC"/>
</linearGradient>
<linearGradient id="paint21_linear_1_761" x1="381.504" y1="438.062" x2="-16.1555" y2="264.656" gradientUnits="userSpaceOnUse">
<stop stop-color="#6EB4CC"/>
<stop offset="1" stop-color="#4941BC"/>
</linearGradient>
<linearGradient id="paint22_linear_1_761" x1="381.504" y1="438.062" x2="-16.1555" y2="264.656" gradientUnits="userSpaceOnUse">
<stop stop-color="#6EB4CC"/>
<stop offset="1" stop-color="#4941BC"/>
</linearGradient>
<linearGradient id="paint23_linear_1_761" x1="381.504" y1="438.062" x2="-16.1555" y2="264.656" gradientUnits="userSpaceOnUse">
<stop stop-color="#6EB4CC"/>
<stop offset="1" stop-color="#4941BC"/>
</linearGradient>
<linearGradient id="paint24_linear_1_761" x1="381.504" y1="438.062" x2="-16.1555" y2="264.656" gradientUnits="userSpaceOnUse">
<stop stop-color="#6EB4CC"/>
<stop offset="1" stop-color="#4941BC"/>
</linearGradient>
<linearGradient id="paint25_linear_1_761" x1="381.504" y1="438.062" x2="-16.1555" y2="264.656" gradientUnits="userSpaceOnUse">
<stop stop-color="#6EB4CC"/>
<stop offset="1" stop-color="#4941BC"/>
</linearGradient>
<linearGradient id="paint26_linear_1_761" x1="381.504" y1="438.062" x2="-16.1555" y2="264.656" gradientUnits="userSpaceOnUse">
<stop stop-color="#6EB4CC"/>
<stop offset="1" stop-color="#4941BC"/>
</linearGradient>
<linearGradient id="paint27_linear_1_761" x1="381.504" y1="438.062" x2="-16.1556" y2="264.656" gradientUnits="userSpaceOnUse">
<stop stop-color="#6EB4CC"/>
<stop offset="1" stop-color="#4941BC"/>
</linearGradient>
<linearGradient id="paint28_linear_1_761" x1="381.504" y1="438.062" x2="-16.1555" y2="264.656" gradientUnits="userSpaceOnUse">
<stop stop-color="#6EB4CC"/>
<stop offset="1" stop-color="#4941BC"/>
</linearGradient>
<linearGradient id="paint29_linear_1_761" x1="381.504" y1="438.062" x2="-16.1555" y2="264.656" gradientUnits="userSpaceOnUse">
<stop stop-color="#6EB4CC"/>
<stop offset="1" stop-color="#4941BC"/>
</linearGradient>
<linearGradient id="paint30_linear_1_761" x1="381.504" y1="438.062" x2="-16.1555" y2="264.656" gradientUnits="userSpaceOnUse">
<stop stop-color="#6EB4CC"/>
<stop offset="1" stop-color="#4941BC"/>
</linearGradient>
<linearGradient id="paint31_linear_1_761" x1="381.504" y1="438.062" x2="-16.1554" y2="264.656" gradientUnits="userSpaceOnUse">
<stop stop-color="#6EB4CC"/>
<stop offset="1" stop-color="#4941BC"/>
</linearGradient>
<linearGradient id="paint32_linear_1_761" x1="381.504" y1="438.062" x2="-16.1555" y2="264.656" gradientUnits="userSpaceOnUse">
<stop stop-color="#6EB4CC"/>
<stop offset="1" stop-color="#4941BC"/>
</linearGradient>
<linearGradient id="paint33_linear_1_761" x1="381.504" y1="438.062" x2="-16.1555" y2="264.656" gradientUnits="userSpaceOnUse">
<stop stop-color="#6EB4CC"/>
<stop offset="1" stop-color="#4941BC"/>
</linearGradient>
<linearGradient id="paint34_linear_1_761" x1="381.504" y1="438.062" x2="-16.1555" y2="264.656" gradientUnits="userSpaceOnUse">
<stop stop-color="#6EB4CC"/>
<stop offset="1" stop-color="#4941BC"/>
</linearGradient>
<linearGradient id="paint35_linear_1_761" x1="381.504" y1="438.062" x2="-16.1554" y2="264.656" gradientUnits="userSpaceOnUse">
<stop stop-color="#6EB4CC"/>
<stop offset="1" stop-color="#4941BC"/>
</linearGradient>
<linearGradient id="paint36_linear_1_761" x1="381.504" y1="438.062" x2="-16.1554" y2="264.656" gradientUnits="userSpaceOnUse">
<stop stop-color="#6EB4CC"/>
<stop offset="1" stop-color="#4941BC"/>
</linearGradient>
<linearGradient id="paint37_linear_1_761" x1="381.504" y1="438.062" x2="-16.1555" y2="264.656" gradientUnits="userSpaceOnUse">
<stop stop-color="#6EB4CC"/>
<stop offset="1" stop-color="#4941BC"/>
</linearGradient>
<linearGradient id="paint38_linear_1_761" x1="381.504" y1="438.062" x2="-16.1555" y2="264.656" gradientUnits="userSpaceOnUse">
<stop stop-color="#6EB4CC"/>
<stop offset="1" stop-color="#4941BC"/>
</linearGradient>
<linearGradient id="paint39_linear_1_761" x1="381.504" y1="438.062" x2="-16.1555" y2="264.656" gradientUnits="userSpaceOnUse">
<stop stop-color="#6EB4CC"/>
<stop offset="1" stop-color="#4941BC"/>
</linearGradient>
<linearGradient id="paint40_linear_1_761" x1="381.504" y1="438.062" x2="-16.1554" y2="264.656" gradientUnits="userSpaceOnUse">
<stop stop-color="#6EB4CC"/>
<stop offset="1" stop-color="#4941BC"/>
</linearGradient>
<linearGradient id="paint41_linear_1_761" x1="381.504" y1="438.062" x2="-16.1554" y2="264.656" gradientUnits="userSpaceOnUse">
<stop stop-color="#6EB4CC"/>
<stop offset="1" stop-color="#4941BC"/>
</linearGradient>
<linearGradient id="paint42_linear_1_761" x1="381.504" y1="438.062" x2="-16.1555" y2="264.656" gradientUnits="userSpaceOnUse">
<stop stop-color="#6EB4CC"/>
<stop offset="1" stop-color="#4941BC"/>
</linearGradient>
<linearGradient id="paint43_linear_1_761" x1="381.504" y1="438.062" x2="-16.1555" y2="264.656" gradientUnits="userSpaceOnUse">
<stop stop-color="#6EB4CC"/>
<stop offset="1" stop-color="#4941BC"/>
</linearGradient>
<linearGradient id="paint44_linear_1_761" x1="230.976" y1="94.0443" x2="242.127" y2="158.506" gradientUnits="userSpaceOnUse">
<stop offset="0.144" stop-color="#FEFEFE"/>
<stop offset="1" stop-color="#C1C1C1"/>
</linearGradient>
</defs>
</svg>
